<?xml version="1.0" encoding="utf-8"?>
<?xml-stylesheet type="text/xsl" href="rss1.xsl"?>
<rss version="2.0" xmlns:atom="http://www.w3.org/2005/Atom" xmlns:content="http://purl.org/rss/1.0/modules/content/" xmlns:dc="http://purl.org/dc/elements/1.1/" xmlns:media="http://search.yahoo.com/mrss/">
<channel>
 <title>Getty</title>
 <link>http://www.gettyimg.com/</link>
 <atom:link href="http://www.gettyimg.com/" rel="self" type="application/rss+xml" />

 
                <item>
                <title><![CDATA[【Cinema Center】MOVIE - AVP: Alien vs. Predator (2004) (Widescreen DVDRip DivX)]]></title>
                <link><![CDATA[https://sharemania.us/threads/avp-alien-vs-predator-2004-widescreen-dvdrip-divx.234149/]]></link>
                <description><![CDATA[<article>
<blockquote class="messageText SelectQuoteContainer ugc baseHtml">
<b>Release Name</b><br>
AVP.Alien.vs.Predator.2004.WS.DVDRip.DivX<br>
<br>
<b>Screenshot</b><br>
<img src="https://i.ibb.co/w4756F9/AVP-Alien-vs-Predator-2004-WS-DVDRip-Div-X.jpg" class="bbCodeImage LbImage" alt="[​IMG]" data-url="https://i.ibb.co/w4756F9/AVP-Alien-vs-Predator-2004-WS-DVDRip-Div-X.jpg" style=""><br>
<br>
<div class="ToggleTriggerAnchor bbCodeSpoilerContainer">
<button type="button" class="button bbCodeSpoilerButton ToggleTrigger Tooltip JsOnly" data-target="> .SpoilerTarget"><span>Spoiler: <span class="SpoilerTitle">Media Information</span></span></button>
<div class="SpoilerTarget bbCodeSpoilerText">General<br>
Unique ID : 123861535147706273191872595701147787409 (0x5D2EDD2BD1A60AD07DE3516405AE6091)<br>
Complete name : AVP.Alien.vs.Predator.2004.WS.DVDRip.DivX.mkv<br>
Format : Matroska<br>
Format version : Version 4<br>
File size : 5.63 GiB<br>
Duration : 1 h 40 min<br>
Overall bit rate mode : Variable<br>
Overall bit rate : 7 999 kb/s<br>
Frame rate : 24.077 FPS<br>
Movie name : AVP: Alien vs. Predator<br>
Encoded date : 2005-01-25 17:00:00 UTC<br>
Writing application : MakeMKV v1.17.5 darwin(arm64-release)<br>
Writing library : libmakemkv v1.17.5 (1.3.10/1.5.2) darwin(arm64-release)<br>
<br>
Video<br>
ID : 1<br>
ID in the original source medium : 224 (0xE0)<br>
Format : MPEG Video<br>
Format version : Version 2<br>
Format profile : Main@Main<br>
Format settings : CustomMatrix / BVOP<br>
Format settings, BVOP : Yes<br>
Format settings, Matrix : Custom<br>
Format settings, GOP : Variable<br>
Codec ID : V_MPEG2<br>
Codec ID/Info : MPEG 1 or 2 Video<br>
Duration : 1 h 40 min<br>
Bit rate mode : Variable<br>
Bit rate : 6 017 kb/s<br>
Maximum bit rate : 9 800 kb/s<br>
Width : 720 pixels<br>
Height : 480 pixels<br>
Display aspect ratio : 16:9<br>
Frame rate mode : Variable<br>
Frame rate : 24.077 FPS<br>
Original frame rate : 29.970 (30000/1001) FPS<br>
Standard : Component<br>
Color space : YUV<br>
Chroma subsampling : 4:2:0<br>
Bit depth : 8 bits<br>
Compression mode : Lossy<br>
Bits/(Pixel*Frame) : 0.723<br>
Stream size : 4.24 GiB (75%)<br>
Language : English<br>
Default : No<br>
Forced : No<br>
Color primaries : BT.601 NTSC<br>
Transfer characteristics : BT.601<br>
Matrix coefficients : BT.601<br>
Original source medium : DVD-Video<br>
<br>
Audio #1<br>
ID : 2<br>
ID in the original source medium : 189 (0xBD)128 (0x80)<br>
Format : AC-3<br>
Format/Info : Audio Coding 3<br>
Commercial name : Dolby Digital<br>
Codec ID : A_AC3<br>
Duration : 1 h 40 min<br>
Bit rate mode : Constant<br>
Bit rate : 448 kb/s<br>
Channel(s) : 6 channels<br>
Channel layout : L R C LFE Ls Rs<br>
Sampling rate : 48.0 kHz<br>
Frame rate : 31.250 FPS (1536 SPF)<br>
Compression mode : Lossy<br>
Stream size : 323 MiB (6%)<br>
Title : Surround 5.1<br>
Language : English (US)<br>
Service kind : Complete Main<br>
Default : Yes<br>
Forced : No<br>
Original source medium : DVD-Video<br>
<br>
Audio #2<br>
ID : 3<br>
ID in the original source medium : 189 (0xBD)137 (0x89)<br>
Format : DTS<br>
Format/Info : Digital Theater Systems<br>
Codec ID : A_DTS<br>
Duration : 1 h 40 min<br>
Bit rate mode : Constant<br>
Bit rate : 754 kb/s<br>
Channel(s) : 6 channels<br>
Channel layout : C L R Ls Rs LFE<br>
Sampling rate : 48.0 kHz<br>
Frame rate : 93.750 FPS (512 SPF)<br>
Bit depth : 16 bits<br>
Compression mode : Lossy<br>
Stream size : 544 MiB (9%)<br>
Title : Surround 5.1<br>
Language : English<br>
Default : No<br>
Forced : No<br>
Original source medium : DVD-Video<br>
<br>
Audio #3<br>
ID : 4<br>
ID in the original source medium : 189 (0xBD)130 (0x82)<br>
Format : AC-3<br>
Format/Info : Audio Coding 3<br>
Commercial name : Dolby Digital<br>
Format settings : Dolby Surround<br>
Codec ID : A_AC3<br>
Duration : 1 h 40 min<br>
Bit rate mode : Constant<br>
Bit rate : 192 kb/s<br>
Channel(s) : 2 channels<br>
Channel layout : L R<br>
Sampling rate : 48.0 kHz<br>
Frame rate : 31.250 FPS (1536 SPF)<br>
Compression mode : Lossy<br>
Stream size : 138 MiB (2%)<br>
Title : Stereo<br>
Language : French (FR)<br>
Service kind : Complete Main<br>
Default : No<br>
Forced : No<br>
Original source medium : DVD-Video<br>
<br>
Audio #4<br>
ID : 5<br>
ID in the original source medium : 189 (0xBD)131 (0x83)<br>
Format : AC-3<br>
Format/Info : Audio Coding 3<br>
Commercial name : Dolby Digital<br>
Format settings : Dolby Surround<br>
Codec ID : A_AC3<br>
Duration : 1 h 40 min<br>
Bit rate mode : Constant<br>
Bit rate : 192 kb/s<br>
Channel(s) : 2 channels<br>
Channel layout : L R<br>
Sampling rate : 48.0 kHz<br>
Frame rate : 31.250 FPS (1536 SPF)<br>
Compression mode : Lossy<br>
Stream size : 138 MiB (2%)<br>
Title : Stereo<br>
Language : Spanish (Latin America)<br>
Service kind : Complete Main<br>
Default : No<br>
Forced : No<br>
Original source medium : DVD-Video<br>
<br>
Audio #5<br>
ID : 6<br>
ID in the original source medium : 189 (0xBD)132 (0x84)<br>
Format : AC-3<br>
Format/Info : Audio Coding 3<br>
Commercial name : Dolby Digital<br>
Format settings : Dolby Surround<br>
Codec ID : A_AC3<br>
Duration : 1 h 40 min<br>
Bit rate mode : Constant<br>
Bit rate : 192 kb/s<br>
Channel(s) : 2 channels<br>
Channel layout : L R<br>
Sampling rate : 48.0 kHz<br>
Frame rate : 31.250 FPS (1536 SPF)<br>
Compression mode : Lossy<br>
Stream size : 138 MiB (2%)<br>
Title : Stereo<br>
Language : English<br>
Service kind : Complete Main<br>
Default : No<br>
Forced : No<br>
Original source medium : DVD-Video<br>
<br>
Audio #6<br>
ID : 7<br>
ID in the original source medium : 189 (0xBD)133 (0x85)<br>
Format : AC-3<br>
Format/Info : Audio Coding 3<br>
Commercial name : Dolby Digital<br>
Format settings : Dolby Surround<br>
Codec ID : A_AC3<br>
Duration : 1 h 40 min<br>
Bit rate mode : Constant<br>
Bit rate : 192 kb/s<br>
Channel(s) : 2 channels<br>
Channel layout : L R<br>
Sampling rate : 48.0 kHz<br>
Frame rate : 31.250 FPS (1536 SPF)<br>
Compression mode : Lossy<br>
Stream size : 138 MiB (2%)<br>
Title : Stereo<br>
Language : English<br>
Service kind : Complete Main<br>
Default : No<br>
Forced : No<br>
Original source medium : DVD-Video<br>
<br>
Text #1<br>
ID : 8<br>
ID in the original source medium : 189 (0xBD)32 (0x20)<br>
Format : VobSub<br>
Codec ID : S_VOBSUB<br>
Codec ID/Info : Picture based subtitle format used on DVDs<br>
Duration : 1 h 28 min<br>
Bit rate : 1 621 b/s<br>
Frame rate : 0.128 FPS<br>
Count of elements : 682<br>
Stream size : 1.03 MiB (0%)<br>
Language : English<br>
Default : Yes<br>
Forced : No<br>
Original source medium : DVD-Video<br>
<br>
Text #2<br>
ID : 9<br>
ID in the original source medium : 189 (0xBD)34 (0x22)<br>
Format : VobSub<br>
Codec ID : S_VOBSUB<br>
Codec ID/Info : Picture based subtitle format used on DVDs<br>
Duration : 1 h 28 min<br>
Bit rate : 1 357 b/s<br>
Frame rate : 0.098 FPS<br>
Count of elements : 524<br>
Stream size : 882 KiB (0%)<br>
Language : Spanish<br>
Default : No<br>
Forced : No<br>
Original source medium : DVD-Video<br>
<br>
Text #3<br>
ID : 10<br>
ID in the original source medium : 189 (0xBD)36 (0x24)<br>
Format : VobSub<br>
Codec ID : S_VOBSUB<br>
Codec ID/Info : Picture based subtitle format used on DVDs<br>
Duration : 1 h 28 min<br>
Bit rate : 37 b/s<br>
Frame rate : 0.006 FPS<br>
Count of elements : 31<br>
Stream size : 24.6 KiB (0%)<br>
Language : French<br>
Default : No<br>
Forced : No<br>
Original source medium : DVD-Video<br>
<br>
Text #4<br>
ID : 11<br>
ID in the original source medium : 189 (0xBD)38 (0x26)<br>
Format : VobSub<br>
Codec ID : S_VOBSUB<br>
Codec ID/Info : Picture based subtitle format used on DVDs<br>
Duration : 1 h 28 min<br>
Bit rate : 15 b/s<br>
Frame rate : 0.004 FPS<br>
Count of elements : 23<br>
Stream size : 9.80 KiB (0%)<br>
Language : Spanish<br>
Default : No<br>
Forced : No<br>
Original source medium : DVD-Video<br>
<br>
Text #5<br>
ID : 12<br>
ID in the original source medium : 224 (0xE0)<br>
Format : UTF-8<br>
Codec ID : S_TEXT/UTF8<br>
Codec ID/Info : UTF-8 Plain Text<br>
Duration : 1 h 25 min<br>
Bit rate : 65 b/s<br>
Frame rate : 0.130 FPS<br>
Count of elements : 666<br>
Stream size : 40.9 KiB (0%)<br>
Language : English<br>
Default : No<br>
Forced : No<br>
Original source medium : DVD-Video<br>
<br>
Menu<br>
00:00:00.000 : en:Chapter 01<br>
00:02:24.144 : en:Chapter 02<br>
00:06:39.599 : en:Chapter 03<br>
00:10:01.934 : en:Chapter 04<br>
00:12:43.929 : en:Chapter 05<br>
00:16:08.801 : en:Chapter 06<br>
00:20:24.389 : en:Chapter 07<br>
00:23:24.069 : en:Chapter 08<br>
00:25:46.211 : en:Chapter 09<br>
00:27:41.693 : en:Chapter 10<br>
00:30:38.169 : en:Chapter 11<br>
00:32:50.134 : en:Chapter 12<br>
00:36:55.580 : en:Chapter 13<br>
00:39:49.720 : en:Chapter 14<br>
00:44:33.704 : en:Chapter 15<br>
00:48:14.892 : en:Chapter 16<br>
00:51:20.243 : en:Chapter 17<br>
00:56:44.100 : en:Chapter 18<br>
00:58:30.840 : en:Chapter 19<br>
01:04:29.532 : en:Chapter 20<br>
01:06:06.829 : en:Chapter 21<br>
01:08:11.587 : en:Chapter 22<br>
01:13:57.099 : en:Chapter 23<br>
01:16:53.442 : en:Chapter 24<br>
01:20:29.991 : en:Chapter 25<br>
01:21:49.688 : en:Chapter 26<br>
01:25:24.986 : en:Chapter 27<br>
01:28:44.018 : en:Chapter 28</div>
</div>
<div class="messageTextEndMarker">&nbsp;</div>
</blockquote>
</article>]]></description>
                <author><![CDATA[Austin Zimmermann]]></author>
                </item>

                
                <item>
                <title><![CDATA[【Albums (lossless)】FLAC - Nekfeu - Cyborg [Qobuz Hi-Res| 24bit@44.1kHz | 1 591 kb/s]]]></title>
                <link><![CDATA[https://sharemania.us/threads/nekfeu-cyborg-qobuz-hi-res-24bit-44-1khz-1-591-kb-s.234148/]]></link>
                <description><![CDATA[<article>
<blockquote class="messageText SelectQuoteContainer ugc baseHtml">
<b><img src="https://resources.tidal.com/images/08f8ada4/837b/4c28/a077/28a44a9aa1e3/1280x1280.jpg" class="bbCodeImage LbImage" alt="[​IMG]" data-url="https://resources.tidal.com/images/08f8ada4/837b/4c28/a077/28a44a9aa1e3/1280x1280.jpg" style=""></b><br>
<br>
<b><span style="font-family: 'Book Antiqua'"><b><b>Artist</b>: Nekfeu</b><br>
<b><b>Album</b>: Cyborg</b><br>
<b><b>Release</b>: 09/12/2016</b><br>
<b><b>Format</b>: .flac Free Lossless Audio Codec | Qobuz Encoding</b><br>
<b><b>Sample Rate</b>: 1591</b> Kbps, 44.100 kHz | <b>24bit@44.1kHz</b><br>
<b><b>Quality</b>: </b>High Quality, Lossless Audio<br>
<b><b>Source</b>: <a href="https://play.qobuz.com/album/0060255731565" target="_blank" class="externalLink" rel="nofollow">Qobuz</a></b></span></b><br>
<br>
<div class="bbCodeBlock bbCodeVfcHH HiddenContent">
<div class="attribution type">Hidden Content:</div>
<blockquote>You must reply before you can see the hidden data contained here.</blockquote>
</div>
<div class="messageTextEndMarker">&nbsp;</div>
</blockquote>
</article>]]></description>
                <author><![CDATA[SonMaxime]]></author>
                </item>

                </channel></rss>